# File created by Blade
# Date/Time:  Wed Apr 08 17:24:36 2015
# Frame Rate: 120.000 fps
#------------------------------------------------------
:FULLY-SPECIFIED
:DEGREES
1581
root 9.089003 36.289378 1.608173 356.571360 -83.364345 -333.425401
Spine -18.701488 0.978292 -4.544624
Head -6.795745 13.521897 4.998541
LeftShoulder -5.991478 11.020926 30.381040
LeftArm 12.193170 -38.874261 -35.015122
LeftForeArm 20.073422 -0.000000 3.560464
LeftHand -12.402172 -0.000000 -14.980288
LeftHandThumb1 -26.253704 0.000000 33.147579
RightShoulder -24.854491 -42.433290 -10.714617
RightArm 51.266384 49.331993 58.532317
RightForeArm 8.448675 -0.000000 -2.188569
RightHand -3.525703 -0.000000 4.897291
RightHandThumb1 -24.326973 -0.000000 -32.862282
LeftUpLeg -27.415528 10.597142 -3.447725
LeftLeg 13.683155 -0.000000 -0.000000
LeftFoot -9.735825 8.841389 -12.740512
LeftToeBase 7.483626 -0.000000 -0.000000
RightUpLeg -32.012468 -10.906281 -7.405956
RightLeg 23.397731 -0.000000 -0.000000
RightFoot -11.589287 -8.198615 17.165760
RightToeBase 2.238953 -0.000000 -0.000000
1582
root 9.094240 36.290849 1.603422 356.874881 -83.335993 -333.597936
Spine -18.965155 0.989334 -4.461711
Head -6.324340 13.582876 4.739003
LeftShoulder -5.965491 11.043956 30.348326
LeftArm 12.311889 -38.848977 -35.093749
LeftForeArm 19.735173 -0.000000 3.481456
LeftHand -12.416081 0.000000 -15.063192
LeftHandThumb1 -26.253704 0.000000 33.147579
RightShoulder -24.764424 -42.464908 -10.863288
RightArm 51.256091 49.280980 58.452306
RightForeArm 8.353466 -0.000000 -2.199642
RightHand -3.592857 -0.000000 4.938036
RightHandThumb1 -24.326973 -0.000000 -32.862282
LeftUpLeg -27.609769 10.565341 -3.454226
LeftLeg 13.768766 -0.000000 -0.000000
LeftFoot -9.732357 8.848612 -12.756581
LeftToeBase 7.460918 -0.000000 -0.000000
RightUpLeg -31.931181 -10.637975 -7.493251
RightLeg 23.272201 -0.000000 -0.000000
RightFoot -11.656640 -8.022831 17.253004
RightToeBase 4.393683 -0.000000 -0.000000
1583
root 9.096562 36.291164 1.595099 357.154746 -83.283805 -333.749150
Spine -19.233527 1.000849 -4.394190
Head -5.853922 13.624795 4.499401
LeftShoulder -5.960001 11.061529 30.302831
LeftArm 12.511946 -38.847213 -35.203224
LeftForeArm 19.574573 -0.000000 3.395296
LeftHand -12.379775 -0.000000 -15.144026
LeftHandThumb1 -26.253704 0.000000 33.147579
RightShoulder -24.725304 -42.491344 -10.952419
RightArm 51.287163 49.308103 58.412989
RightForeArm 8.122607 0.000000 -2.215682
RightHand -3.593975 -0.000000 4.848408
RightHandThumb1 -24.326973 -0.000000 -32.862282
LeftUpLeg -27.791493 10.533890 -3.468258
LeftLeg 13.844043 -0.000000 -0.000000
LeftFoot -9.735026 8.847516 -12.718393
LeftToeBase 7.502415 -0.000000 -0.000000
RightUpLeg -31.763981 -10.378358 -7.578050
RightLeg 22.885925 -0.000000 -0.000000
RightFoot -11.800618 -8.127105 17.628373
RightToeBase 3.922820 -0.000000 -0.000000
1584
root 9.095196 36.290569 1.586077 357.095863 -83.220860 -333.575904
Spine -19.483861 1.033600 -4.392885
Head -5.444791 13.651788 4.293601
LeftShoulder -5.914314 10.999115 30.288444
LeftArm 12.640555 -38.865571 -35.295485
LeftForeArm 19.491783 -0.000000 3.350302
LeftHand -12.340804 -0.000000 -15.162791
LeftHandThumb1 -26.253704 0.000000 33.147579
RightShoulder -24.744929 -42.494470 -10.973415
RightArm 51.207928 49.285722 58.229016
RightForeArm 8.104423 -0.000000 -2.201947
RightHand -3.646753 0.000000 4.767452
RightHandThumb1 -24.326973 -0.000000 -32.862282
LeftUpLeg -27.918661 10.466321 -3.504287
LeftLeg 13.858785 -0.000000 -0.000000
LeftFoot -9.713351 8.898357 -12.702207
LeftToeBase 7.498766 -0.000000 -0.000000
RightUpLeg -31.494145 -10.168924 -7.692563
RightLeg 22.181285 -0.000000 -0.000000
RightFoot -11.870246 -8.592802 18.261513
RightToeBase 4.207482 -0.000000 -0.000000
1585
root 9.089074 36.289487 1.573467 357.119078 -83.123893 -333.486780
Spine -19.741070 1.030787 -4.388934
Head -5.047149 13.697186 4.111619
LeftShoulder -5.889749 10.936866 30.256951
LeftArm 12.791392 -38.887437 -35.384693
LeftForeArm 19.456753 0.000000 3.361316
LeftHand -12.450731 -0.000000 -15.167673
LeftHandThumb1 -26.253704 0.000000 33.147579
RightShoulder -24.757954 -42.503800 -11.002363
RightArm 51.197494 49.336321 58.174662
RightForeArm 8.044185 0.000000 -2.181311
RightHand -3.628013 -0.000000 4.664520
RightHandThumb1 -24.326973 -0.000000 -32.862282
LeftUpLeg -28.040091 10.396477 -3.540267
LeftLeg 13.872449 -0.000000 -0.000000
LeftFoot -9.690103 8.918118 -12.681504
LeftToeBase 7.513218 -0.000000 -0.000000
RightUpLeg -31.148887 -10.046230 -7.777073
RightLeg 21.286527 -0.000000 -0.000000
RightFoot -12.036081 -9.249973 19.065946
RightToeBase 6.017966 -0.000000 -0.000000
